<svg xmlns="http://www.w3.org/2000/svg" xmlns:xlink="http://www.w3.org/1999/xlink" viewBox="0,0,256,256" width="48px" height="48px" fill-rule="nonzero"><defs><linearGradient x1="39.121" y1="11.879" x2="8.879" y2="42.121" gradientUnits="userSpaceOnUse" id="color-1"><stop offset="0" stop-color="#608bfe"></stop><stop offset="0.033" stop-color="#6a9bfe"></stop><stop offset="0.197" stop-color="#97c0fe"></stop><stop offset="0.362" stop-color="#bdd1ff"></stop><stop offset="0.525" stop-color="#dae9ff"></stop><stop offset="0.687" stop-color="#eef4ff"></stop><stop offset="0.846" stop-color="#fbfbff"></stop><stop offset="1" stop-color="#ffffff"></stop></linearGradient></defs><g fill="none" fill-rule="nonzero" stroke="none" stroke-width="none" stroke-linecap="none" stroke-linejoin="none" stroke-miterlimit="10" stroke-dasharray="" stroke-dashoffset="0" font-family="none" font-weight="none" font-size="none" text-anchor="none" style="mix-blend-mode: normal"><g transform="scale(5.33333,5.33333)"><path d="M38.5,12.5h-29c-1.657,0 -3,1.343 -3,3v23c0,1.657 1.343,3 3,3h29c1.657,0 3,-1.343 3,-3v-23c0,-1.657 -1.343,-3 -3,-3z" fill="url(#color-1)" stroke="none" stroke-width="1" stroke-linecap="butt" stroke-linejoin="miter"></path><path d="M31.5,12.5h7c1.657,0 3,1.343 3,3v23c0,1.657 -1.343,3 -3,3h-29c-1.657,0 -3,-1.343 -3,-3v-6.84" fill="none" stroke="#306cca" stroke-width="3" stroke-linecap="round" stroke-linejoin="round"></path><path d="M6.5,21.948v-6.448c0,-1.657 1.343,-3 3,-3h14.989" fill="none" stroke="#306cca" stroke-width="3" stroke-linecap="round" stroke-linejoin="round"></path><path d="M16.5,12.5v-4c0,-1.105 0.895,-2 2,-2h11c1.105,0 2,0.895 2,2v4" fill="none" stroke="#306cca" stroke-width="3" stroke-linecap="round" stroke-linejoin="round"></path><path d="M21,27.5h-8.948c-3.066,0 -5.552,-2.486 -5.552,-5.552v-5.213" fill="none" stroke="#306cca" stroke-width="3" stroke-linecap="round" stroke-linejoin="round"></path><path d="M41.5,19.681v2.267c0,3.066 -2.486,5.552 -5.552,5.552h-8.198" fill="none" stroke="#306cca" stroke-width="3" stroke-linecap="round" stroke-linejoin="round"></path><rect x="21" y="24.5" width="6" height="6" fill="#ffffff" stroke="#306cca" stroke-width="3" stroke-linecap="round" stroke-linejoin="round"></rect></g></g></svg>